<?xml version="1.0" encoding="UTF-8"?> <svg xmlns="http://www.w3.org/2000/svg" viewBox="0 0 196.56 42.41"><defs><style>.cls-1{fill:#57b089;}.cls-2{fill:#eabd26;}.cls-3{fill:none;stroke:#eabd26;stroke-miterlimit:3.86;stroke-width:0.05px;}.cls-4{fill:#666;}</style></defs><title>Recurso 3</title><g id="Capa_2" data-name="Capa 2"><g id="Capa_1-2" data-name="Capa 1"><polygon class="cls-1" points="9.05 42.41 9.02 33.35 15.06 33.35 15.06 35.81 12.21 35.81 12.21 36.68 14.8 36.68 14.8 38.99 12.21 38.99 12.21 39.94 15.14 39.94 15.14 42.4 9.05 42.41"></polygon><path class="cls-1" d="M20,40.36c-.09-.19-.15-.34-.2-.45a2.12,2.12,0,0,1-.09-.31,1.9,1.9,0,0,1-.09.29,4.15,4.15,0,0,1-.22.47l-1,2H14.69l3.21-4.82-2.83-4.23h3.71l.67,1.48a.22.22,0,0,1,0,.08,4.86,4.86,0,0,1,.26.67,2.67,2.67,0,0,1,.11-.34c0-.11.1-.25.17-.41l.68-1.48h3.7l-2.83,4.23,3.22,4.82H21.06Z"></path><path class="cls-2" d="M4.53,2H23.41V4.57H7.54A3.41,3.41,0,0,0,4.93,3.36a2.69,2.69,0,0,0-.4,0Z"></path><polygon class="cls-2" points="6.2 0.06 7.76 1.52 23.25 1.52 23.25 0.03 6.2 0.06"></polygon><polygon class="cls-3" points="6.2 0.06 7.76 1.52 23.25 1.52 23.25 0.03 6.2 0.06"></polygon><rect class="cls-2" x="10.41" y="5.47" width="2" height="2.1"></rect><rect class="cls-2" x="13.91" y="5.52" width="2" height="2.1"></rect><rect class="cls-2" x="17.49" y="5.55" width="2" height="2.1"></rect><rect class="cls-2" x="21.25" y="5.45" width="2" height="2.1"></rect><polygon class="cls-2" points="10.67 8.77 9.33 11.03 23.28 11.03 23.28 8.8 10.67 8.77"></polygon><path class="cls-2" d="M1.49,6.84A3.45,3.45,0,1,0,4.93,3.36,3.46,3.46,0,0,0,1.49,6.84M0,6.84a4.94,4.94,0,1,1,4.93,4.94A4.93,4.93,0,0,1,0,6.84"></path><path class="cls-2" d="M2.68,6.84A2.26,2.26,0,1,1,4.94,9.09,2.26,2.26,0,0,1,2.68,6.84"></path><path class="cls-2" d="M7.21,12.12h6.57V29.9a1.88,1.88,0,0,0,1.9.91c2.71,0,2.29-5.12,2.27-6.25,0-.57-.07-9.24-.06-11.34H16c0-.46,0-.67,0-1.09h6.73V32h1.54c0,.36,0,.49,0,.9l-6.25,0V30.4c-.18,1.68-9.34,4.72-9-1.89L9,13c-.51,0-1.2,0-1.82,0Z"></path><path class="cls-3" d="M7.21,12.12h6.57V29.9a1.88,1.88,0,0,0,1.9.91c2.71,0,2.29-5.12,2.27-6.25,0-.57-.07-9.24-.06-11.34H16c0-.46,0-.67,0-1.09h6.73V32h1.54c0,.36,0,.49,0,.9l-6.25,0V30.4c-.18,1.68-9.34,4.72-9-1.89L9,13c-.51,0-1.2,0-1.82,0Z"></path><path class="cls-4" d="M29.67,16.55l1.57-.7a1.7,1.7,0,0,0,1.69,1.34,1.41,1.41,0,0,0,1.5-1.44c0-2.05-4.22-1.52-4.22-4.62A2.63,2.63,0,0,1,33,8.43a2.82,2.82,0,0,1,2.77,1.91l-1.55.71A1.18,1.18,0,0,0,33,10a1,1,0,0,0-1.12,1c0,1.81,4.23,1.38,4.23,4.69A3,3,0,0,1,33,18.9,3.39,3.39,0,0,1,29.67,16.55Z"></path><path class="cls-4" d="M37.54,8.56H43.9v1.72H39.26V12.8h4.11v1.73H39.26V17H43.9v1.73H37.54Z"></path><path class="cls-4" d="M50.82,18.77,48.73,15H47.2v3.78H45.48V8.56h3.81a3.12,3.12,0,0,1,3.2,3.21,3.11,3.11,0,0,1-2,3l2.32,4Zm-3.62-5.5h1.95a1.45,1.45,0,0,0,1.62-1.5,1.44,1.44,0,0,0-1.62-1.49H47.2Z"></path><path class="cls-4" d="M53.09,8.56h2l2.6,6.5,2.6-6.5h2L57.73,19Z"></path><path class="cls-4" d="M63.34,8.56h1.73V18.77H63.34Z"></path><path class="cls-4" d="M66.63,13.65a5.24,5.24,0,0,1,5.31-5.22A4.9,4.9,0,0,1,74.31,9v2.14a3.32,3.32,0,0,0-2.4-1,3.49,3.49,0,1,0,0,7,3.24,3.24,0,0,0,2.41-1V18.3a4.91,4.91,0,0,1-2.37.6A5.25,5.25,0,0,1,66.63,13.65Z"></path><path class="cls-4" d="M75.93,8.56h1.72V18.77H75.93Z"></path><path class="cls-4" d="M79.22,13.66a5.24,5.24,0,1,1,5.24,5.24A5.23,5.23,0,0,1,79.22,13.66Zm8.75,0a3.52,3.52,0,1,0-3.51,3.52A3.51,3.51,0,0,0,88,13.66Z"></path><path class="cls-4" d="M95,8.56h3a5.11,5.11,0,1,1,0,10.21H95Zm3,8.48a3.38,3.38,0,1,0,0-6.76H96.7V17Z"></path><path class="cls-4" d="M104.62,8.56H111v1.72h-4.64V12.8h4.11v1.73h-4.11V17H111v1.73h-6.36Z"></path><path class="cls-4" d="M116.27,8.56h3.49a3,3,0,0,1,3,3,2.46,2.46,0,0,1-.72,1.78,2.75,2.75,0,0,1,1.45,2.47,3,3,0,0,1-3,3h-4.22Zm3.49,4.29A1.25,1.25,0,0,0,121,11.58a1.28,1.28,0,0,0-1.26-1.3H118v2.57Zm.73,4.19a1.27,1.27,0,0,0,1.26-1.29,1.26,1.26,0,0,0-1.26-1.28H118V17Z"></path><path class="cls-4" d="M124.7,8.56h1.72V18.77H124.7Z"></path><path class="cls-4" d="M128.33,8.56h3.49a3,3,0,0,1,3,3,2.46,2.46,0,0,1-.72,1.78,2.73,2.73,0,0,1,1.45,2.47,3,3,0,0,1-3,3h-4.22Zm3.49,4.29a1.25,1.25,0,0,0,1.26-1.27,1.28,1.28,0,0,0-1.26-1.3h-1.77v2.57Zm.73,4.19a1.27,1.27,0,0,0,1.26-1.29,1.26,1.26,0,0,0-1.26-1.28h-2.5V17Z"></path><path class="cls-4" d="M136.75,8.56h1.73V17h3.84v1.73h-5.57Z"></path><path class="cls-4" d="M143.42,8.56h1.73V18.77h-1.73Z"></path><path class="cls-4" d="M146.71,13.66A5.24,5.24,0,1,1,152,18.9,5.23,5.23,0,0,1,146.71,13.66Zm8.75,0A3.51,3.51,0,1,0,152,17.18,3.51,3.51,0,0,0,155.46,13.66Z"></path><path class="cls-4" d="M159.87,10.28h-2.63V8.56h7v1.72h-2.61v8.49h-1.72Z"></path><path class="cls-4" d="M165.43,8.56h6.36v1.72h-4.64V12.8h4.11v1.73h-4.11V17h4.64v1.73h-6.36Z"></path><path class="cls-4" d="M172.63,13.65a5.23,5.23,0,0,1,5.3-5.22A4.87,4.87,0,0,1,180.3,9v2.14a3.29,3.29,0,0,0-2.4-1,3.49,3.49,0,1,0,0,7,3.24,3.24,0,0,0,2.41-1V18.3a4.88,4.88,0,0,1-2.37.6A5.24,5.24,0,0,1,172.63,13.65Z"></path><path class="cls-4" d="M187.56,16.91h-3.87l-.76,1.86h-2l4.64-10.48,4.64,10.48h-1.95Zm-.67-1.62-1.27-3.1-1.27,3.1Z"></path><path class="cls-4" d="M190.08,16.55l1.56-.7a1.72,1.72,0,0,0,1.7,1.34,1.41,1.41,0,0,0,1.5-1.44c0-2.05-4.22-1.52-4.22-4.62a2.63,2.63,0,0,1,2.79-2.7,2.83,2.83,0,0,1,2.77,1.91l-1.55.71a1.18,1.18,0,0,0-1.18-1,1,1,0,0,0-1.12,1c0,1.81,4.23,1.38,4.23,4.69a3,3,0,0,1-3.17,3.13A3.39,3.39,0,0,1,190.08,16.55Z"></path><path class="cls-4" d="M37.23,25.07v5a1.46,1.46,0,1,0,2.91,0v-5h1.3v5a2.76,2.76,0,1,1-5.51,0v-5Z"></path><path class="cls-4" d="M44.1,28v4.73H42.81v-7.9l4.62,4.95V25.07h1.3V33Z"></path><path class="cls-4" d="M50.18,25.07h1.3v7.7h-1.3Z"></path><path class="cls-4" d="M52.21,25.07h1.54l2,4.9,2-4.9H59.2L55.7,33Z"></path><path class="cls-4" d="M59.94,25.07h4.79v1.3h-3.5v1.9h3.1v1.3h-3.1v1.9h3.5v1.3H59.94Z"></path><path class="cls-4" d="M70,32.77l-1.58-2.85H67.22v2.85H65.93v-7.7h2.86a2.44,2.44,0,0,1,.91,4.69l1.75,3Zm-2.73-4.15h1.47a1.13,1.13,0,1,0,0-2.25H67.22Z"></path><path class="cls-4" d="M71.91,31.1l1.18-.53a1.28,1.28,0,0,0,1.27,1,1.07,1.07,0,0,0,1.13-1.09c0-1.54-3.18-1.14-3.18-3.48a2,2,0,0,1,2.1-2,2.14,2.14,0,0,1,2.09,1.44L75.33,27a.88.88,0,0,0-.89-.76.78.78,0,0,0-.84.78c0,1.37,3.19,1,3.19,3.54a2.29,2.29,0,0,1-2.39,2.36A2.55,2.55,0,0,1,71.91,31.1Z"></path><path class="cls-4" d="M77.84,25.07h1.29v7.7H77.84Z"></path><path class="cls-4" d="M80.58,25.07h2.23a3.85,3.85,0,0,1,0,7.7H80.58Zm2.23,6.4a2.55,2.55,0,0,0,0-5.1h-.94v5.1Z"></path><path class="cls-4" d="M91.59,31.37H88.67l-.57,1.4H86.64l3.49-7.9,3.5,7.9H92.16Zm-.5-1.22-1-2.34-1,2.34Z"></path><path class="cls-4" d="M94.36,25.07H96.6a3.85,3.85,0,1,1,0,7.7H94.36Zm2.24,6.4a2.55,2.55,0,1,0,0-5.1h-.94v5.1Z"></path><path class="cls-4" d="M104.29,26.61h1.79a3.08,3.08,0,0,1,0,6.16h-1.79Zm1.79,5.12a2,2,0,1,0,0-4.08h-.75v4.08Z"></path><path class="cls-4" d="M110.11,26.61H114v1h-2.8v1.52h2.48v1h-2.48v1.52H114v1h-3.84Z"></path><path class="cls-4" d="M117.84,25.07h4.8v1.3h-3.5v1.9h3.1v1.3h-3.1v1.9h3.5v1.3h-4.8Z"></path><path class="cls-4" d="M127.3,29l2.38,3.81h-1.54L126.38,30l-1.76,2.82h-1.54L125.46,29l-2.41-3.89h1.54L126.38,28l1.79-2.89h1.54Z"></path><path class="cls-4" d="M131.81,26.37h-2v-1.3h5.25v1.3h-2v6.4h-1.3Z"></path><path class="cls-4" d="M140,32.77l-1.58-2.85H137.3v2.85H136v-7.7h2.87a2.44,2.44,0,0,1,.91,4.69l1.75,3Zm-2.73-4.15h1.47a1.13,1.13,0,1,0,0-2.25H137.3Z"></path><path class="cls-4" d="M142.45,25.07h4.8v1.3h-3.5v1.9h3.1v1.3h-3.1v1.9h3.5v1.3h-4.8Z"></path><path class="cls-4" d="M148.44,24.87l3.66,5.06,3.66-5.06v7.9h-1.29v-4l-2.37,3.27-2.36-3.27v4h-1.3Z"></path><path class="cls-4" d="M161.45,31.37h-2.92l-.57,1.4h-1.47l3.5-7.9,3.5,7.9H162Zm-.5-1.22-1-2.34-1,2.34Z"></path><path class="cls-4" d="M164.22,25.07h2.24a3.85,3.85,0,0,1,0,7.7h-2.24Zm2.24,6.4a2.55,2.55,0,0,0,0-5.1h-.94v5.1Z"></path><path class="cls-4" d="M172.71,25.07v5a1.46,1.46,0,1,0,2.92,0v-5h1.3v5a2.76,2.76,0,0,1-5.52,0v-5Z"></path><path class="cls-4" d="M182.32,32.77l-1.58-2.85h-1.15v2.85h-1.3v-7.7h2.87a2.44,2.44,0,0,1,.91,4.69l1.75,3Zm-2.73-4.15h1.47a1.13,1.13,0,1,0,0-2.25h-1.47Z"></path><path class="cls-4" d="M189,31.37h-2.92l-.57,1.4H184l3.5-7.9,3.5,7.9h-1.47Zm-.5-1.22-1-2.34-1,2.34Z"></path></g></g></svg> 